<svg width="22" height="22" viewBox="0 0 22 22" fill="none" xmlns="http://www.w3.org/2000/svg">
<path d="M11 0.5C5.20156 0.5 0.5 5.20156 0.5 11C0.5 16.7984 5.20156 21.5 11 21.5C16.7984 21.5 21.5 16.7984 21.5 11C21.5 5.20156 16.7984 0.5 11 0.5ZM11 19.7188C6.18594 19.7188 2.28125 15.8141 2.28125 11C2.28125 6.18594 6.18594 2.28125 11 2.28125C15.8141 2.28125 19.7188 6.18594 19.7188 11C19.7188 15.8141 15.8141 19.7188 11 19.7188ZM11.1312 7.23359C12.3734 7.23359 13.2172 8.02578 13.3109 9.18828C13.318 9.28672 13.4 9.36172 13.4984 9.36172H14.8273C14.8883 9.36172 14.9375 9.3125 14.9375 9.25156C14.9375 7.21953 13.3344 5.79688 11.1242 5.79688C8.54844 5.79688 7.0625 7.53594 7.0625 10.4094V11.6352C7.0625 14.4875 8.54844 16.2031 11.1242 16.2031C13.3273 16.2031 14.9375 14.825 14.9375 12.8891C14.9375 12.8281 14.8883 12.7789 14.8273 12.7789H13.4961C13.3977 12.7789 13.318 12.8539 13.3086 12.95C13.2102 14.0305 12.3687 14.7734 11.1289 14.7734C9.59844 14.7734 8.73594 13.6508 8.73594 11.6422V10.4094C8.73828 8.37031 9.60312 7.23359 11.1312 7.23359Z" fill="#00ADEE"/>
</svg>
