<svg width="54" height="48" viewBox="0 0 54 48" fill="none" xmlns="http://www.w3.org/2000/svg">
<path d="M20.0938 19.3516H51.9688C52.2609 19.3516 52.5 19.1125 52.5 18.8203V15.1016C52.5 14.8094 52.2609 14.5703 51.9688 14.5703H20.0938C19.8016 14.5703 19.5625 14.8094 19.5625 15.1016V18.8203C19.5625 19.1125 19.8016 19.3516 20.0938 19.3516ZM19.5625 32.8984C19.5625 33.1906 19.8016 33.4297 20.0938 33.4297H51.9688C52.2609 33.4297 52.5 33.1906 52.5 32.8984V29.1797C52.5 28.8875 52.2609 28.6484 51.9688 28.6484H20.0938C19.8016 28.6484 19.5625 28.8875 19.5625 29.1797V32.8984ZM53.0312 0.625H0.96875C0.676562 0.625 0.4375 0.864062 0.4375 1.15625V4.875C0.4375 5.16719 0.676562 5.40625 0.96875 5.40625H53.0312C53.3234 5.40625 53.5625 5.16719 53.5625 4.875V1.15625C53.5625 0.864062 53.3234 0.625 53.0312 0.625ZM53.0312 42.5938H0.96875C0.676562 42.5938 0.4375 42.8328 0.4375 43.125V46.8438C0.4375 47.1359 0.676562 47.375 0.96875 47.375H53.0312C53.3234 47.375 53.5625 47.1359 53.5625 46.8438V43.125C53.5625 42.8328 53.3234 42.5938 53.0312 42.5938ZM0.663281 24.4582L11.0426 32.6328C11.4277 32.9383 11.9988 32.666 11.9988 32.1746V15.8254C11.9988 15.334 11.4344 15.0617 11.0426 15.3672L0.663281 23.5418C0.59349 23.5961 0.537015 23.6655 0.498168 23.745C0.45932 23.8244 0.439125 23.9116 0.439125 24C0.439125 24.0884 0.45932 24.1756 0.498168 24.255C0.537015 24.3345 0.59349 24.4039 0.663281 24.4582Z" fill="#00ADEE"/>
</svg>
