<svg width="42" height="42" viewBox="0 0 42 42" fill="none" xmlns="http://www.w3.org/2000/svg">
<path fill-rule="evenodd" clip-rule="evenodd" d="M20.1947 1.9977C10.4159 2.5102 2.64456 10.6016 2.64456 20.508C2.64456 21.565 2.73303 22.6013 2.90296 23.6099L15.9091 19.7562C16.2286 17.496 17.9673 15.692 20.1947 15.275L20.1947 1.9977ZM22.1666 1.9977L22.1666 15.275C24.394 15.692 26.1328 17.496 26.4522 19.7562L39.4584 23.6099C39.6283 22.6013 39.7168 21.565 39.7168 20.508C39.7168 10.6016 31.9455 2.5102 22.1666 1.9977ZM39.0261 25.5385L26.3513 21.783C25.78 24.1078 23.6817 25.8322 21.1807 25.8322C18.6797 25.8322 16.5814 24.1078 16.0101 21.783L3.3353 25.5385C5.52758 33.3313 12.687 39.0441 21.1807 39.0441C29.6744 39.0441 36.8338 33.3313 39.0261 25.5385ZM0.672638 20.508C0.672638 9.18176 9.8544 0 21.1807 0C32.507 0 41.6887 9.18176 41.6887 20.508C41.6887 31.8343 32.507 41.0161 21.1807 41.0161C9.8544 41.0161 0.672638 31.8343 0.672638 20.508ZM21.1807 17.1558C19.3293 17.1558 17.8284 18.6566 17.8284 20.508C17.8284 22.3594 19.3293 23.8603 21.1807 23.8603C23.0321 23.8603 24.533 22.3594 24.533 20.508C24.533 18.6566 23.0321 17.1558 21.1807 17.1558Z" fill="#00ADEE"/>
</svg>
