<svg width="22" height="18" viewBox="0 0 22 18" fill="none" xmlns="http://www.w3.org/2000/svg">
<path d="M21.4764 6.68944L20.9209 5.71912C20.8959 5.67635 20.8551 5.64519 20.8072 5.63246C20.7593 5.61972 20.7084 5.62644 20.6654 5.65115L19.4772 6.3449L17.642 1.27772C17.5451 0.975359 17.3546 0.711617 17.0981 0.524571C16.8415 0.337524 16.5322 0.236853 16.2147 0.237091H6.0592C5.24591 0.237091 4.52404 0.762092 4.27326 1.53787L2.52482 6.34725L1.3342 5.6535C1.29127 5.62879 1.24031 5.62207 1.19245 5.6348C1.14458 5.64754 1.1037 5.67869 1.07873 5.72147L0.523258 6.68944C0.471696 6.7785 0.502165 6.891 0.591227 6.94256L2.00685 7.76756L1.66701 8.70506C1.63888 8.78006 1.62482 8.85975 1.62482 8.93944V17.1004C1.62482 17.4683 1.90138 17.766 2.24123 17.766H3.8256C4.11388 17.766 4.36466 17.548 4.4256 17.2433L4.60607 16.3597H17.3936L17.574 17.2433C17.6373 17.548 17.8858 17.766 18.174 17.766H19.7584C20.0983 17.766 20.3748 17.4683 20.3748 17.1004V8.93944C20.3748 8.85975 20.3608 8.78006 20.3326 8.70506L19.9928 7.76756L21.4061 6.94256C21.4486 6.91799 21.4798 6.87771 21.493 6.83037C21.5061 6.78303 21.5002 6.73243 21.4764 6.68944ZM5.18732 11.5551C4.66935 11.5551 4.24982 11.1355 4.24982 10.6176C4.24982 10.0996 4.66935 9.68006 5.18732 9.68006C5.70529 9.68006 6.12482 10.0996 6.12482 10.6176C6.12482 11.1355 5.70529 11.5551 5.18732 11.5551ZM14.2811 13.3129C14.2811 13.416 14.1967 13.5004 14.0936 13.5004H7.90607C7.80295 13.5004 7.71857 13.416 7.71857 13.3129V11.3441C7.71857 11.241 7.80295 11.1566 7.90607 11.1566H8.84357C8.9467 11.1566 9.03107 11.241 9.03107 11.3441V12.1879H12.9686V11.3441C12.9686 11.241 13.0529 11.1566 13.1561 11.1566H14.0936C14.1967 11.1566 14.2811 11.241 14.2811 11.3441V13.3129ZM16.8123 11.5551C16.2944 11.5551 15.8748 11.1355 15.8748 10.6176C15.8748 10.0996 16.2944 9.68006 16.8123 9.68006C17.3303 9.68006 17.7498 10.0996 17.7498 10.6176C17.7498 11.1355 17.3303 11.5551 16.8123 11.5551ZM4.15607 6.79725L5.85998 2.11209L5.8717 2.08162L5.88107 2.05115C5.90685 1.97381 5.97716 1.92225 6.0592 1.92225H16.0811L17.8483 6.79725H4.15607Z" fill="black"/>
</svg>
