<svg width="3" height="16" viewBox="0 0 3 16" fill="none" xmlns="http://www.w3.org/2000/svg">
<path d="M0.1875 1.41406C0.1875 1.76216 0.325781 2.096 0.571922 2.34214C0.818064 2.58828 1.1519 2.72656 1.5 2.72656C1.8481 2.72656 2.18194 2.58828 2.42808 2.34214C2.67422 2.096 2.8125 1.76216 2.8125 1.41406C2.8125 1.06597 2.67422 0.732126 2.42808 0.485985C2.18194 0.239843 1.8481 0.101563 1.5 0.101562C1.1519 0.101563 0.818064 0.239843 0.571922 0.485985C0.325781 0.732126 0.1875 1.06597 0.1875 1.41406ZM0.1875 7.97656C0.1875 8.32466 0.325781 8.6585 0.571922 8.90464C0.818064 9.15078 1.1519 9.28906 1.5 9.28906C1.8481 9.28906 2.18194 9.15078 2.42808 8.90464C2.67422 8.6585 2.8125 8.32466 2.8125 7.97656C2.8125 7.62847 2.67422 7.29463 2.42808 7.04848C2.18194 6.80234 1.8481 6.66406 1.5 6.66406C1.1519 6.66406 0.818064 6.80234 0.571922 7.04848C0.325781 7.29463 0.1875 7.62847 0.1875 7.97656ZM0.1875 14.5391C0.1875 14.8872 0.325781 15.221 0.571922 15.4671C0.818064 15.7133 1.1519 15.8516 1.5 15.8516C1.8481 15.8516 2.18194 15.7133 2.42808 15.4671C2.67422 15.221 2.8125 14.8872 2.8125 14.5391C2.8125 14.191 2.67422 13.8571 2.42808 13.611C2.18194 13.3648 1.8481 13.2266 1.5 13.2266C1.1519 13.2266 0.818064 13.3648 0.571922 13.611C0.325781 13.8571 0.1875 14.191 0.1875 14.5391Z" fill="black"/>
</svg>
